<svg width="112" height="28" viewBox="0 0 112 28" fill="none" xmlns="http://www.w3.org/2000/svg">
<path d="M1.5645 22H4.956L6.0375 10.786L9.9855 21.5695H12.075L16.0335 10.786L17.1045 22H20.5065L18.7845 4.675H15.1725L11.0355 15.511L6.8985 4.675H3.2865L1.5645 22ZM26.3504 22.336C27.0854 22.336 27.7714 22.1855 28.4084 21.8845C29.0524 21.5765 29.6194 21.1425 30.1094 20.5825V22H33.3329V11.248H30.1094V12.5605C29.6824 12.0425 29.1399 11.64 28.4819 11.353C27.8239 11.059 27.1134 10.912 26.3504 10.912C25.3144 10.912 24.3939 11.164 23.5889 11.668C22.7909 12.165 22.1644 12.844 21.7094 13.705C21.2544 14.559 21.0269 15.525 21.0269 16.603C21.0269 17.709 21.2649 18.696 21.7409 19.564C22.2169 20.425 22.8539 21.104 23.6519 21.601C24.4569 22.091 25.3564 22.336 26.3504 22.336ZM27.3059 19.5955C26.4729 19.5955 25.7834 19.3155 25.2374 18.7555C24.6914 18.1955 24.4184 17.485 24.4184 16.624C24.4184 15.763 24.6914 15.0525 25.2374 14.4925C25.7904 13.9325 26.4799 13.6525 27.3059 13.6525C28.1389 13.6525 28.8249 13.9325 29.3639 14.4925C29.9099 15.0455 30.1829 15.756 30.1829 16.624C30.1829 17.492 29.9134 18.206 29.3744 18.766C28.8354 19.319 28.1459 19.5955 27.3059 19.5955ZM35.0247 22H38.2482V15.637C38.2482 15.014 38.4547 14.4925 38.8677 14.0725C39.2807 13.6455 39.8442 13.432 40.5582 13.432C41.2582 13.432 41.8077 13.649 42.2067 14.083C42.6127 14.51 42.8157 15.1085 42.8157 15.8785V22H46.0392V15.196C46.0392 14.342 45.8607 13.5965 45.5037 12.9595C45.1467 12.3155 44.6532 11.815 44.0232 11.458C43.4002 11.094 42.6757 10.912 41.8497 10.912C41.1077 10.912 40.4252 11.0555 39.8022 11.3425C39.1792 11.6225 38.6612 11.99 38.2482 12.445V11.248H35.0247V22ZM52.7028 27.775C54.1238 27.775 55.2963 27.537 56.2203 27.061C57.1513 26.592 57.8443 25.9445 58.2993 25.1185C58.7613 24.2925 58.9923 23.351 58.9923 22.294V11.248H55.7688V12.5605C55.3418 12.0425 54.8063 11.64 54.1623 11.353C53.5183 11.059 52.8183 10.912 52.0623 10.912C51.0263 10.912 50.1023 11.1605 49.2903 11.6575C48.4853 12.1545 47.8483 12.8335 47.3793 13.6945C46.9173 14.5555 46.6863 15.532 46.6863 16.624C46.6863 17.737 46.9243 18.724 47.4003 19.585C47.8833 20.446 48.5238 21.1215 49.3218 21.6115C50.1198 22.0945 51.0053 22.336 51.9783 22.336C52.7273 22.336 53.4273 22.182 54.0783 21.874C54.7363 21.566 55.2998 21.1355 55.7688 20.5825V22.0945C55.7688 22.9625 55.4818 23.6625 54.9078 24.1945C54.3408 24.7265 53.6023 24.9925 52.6923 24.9925C52.0203 24.9925 51.3973 24.8455 50.8233 24.5515C50.2493 24.2575 49.8153 23.862 49.5213 23.365L46.8963 24.646C47.3513 25.675 48.0688 26.452 49.0488 26.977C50.0358 27.509 51.2538 27.775 52.7028 27.775ZM52.9443 19.5955C52.1043 19.5955 51.4148 19.319 50.8758 18.766C50.3438 18.206 50.0778 17.499 50.0778 16.645C50.0778 15.777 50.3508 15.063 50.8968 14.503C51.4498 13.936 52.1393 13.6525 52.9653 13.6525C53.7913 13.6525 54.4773 13.936 55.0233 14.503C55.5693 15.063 55.8423 15.777 55.8423 16.645C55.8423 17.499 55.5693 18.206 55.0233 18.766C54.4843 19.319 53.7913 19.5955 52.9443 19.5955ZM65.1676 22.336C65.9026 22.336 66.5886 22.1855 67.2256 21.8845C67.8696 21.5765 68.4366 21.1425 68.9266 20.5825V22H72.1501V11.248H68.9266V12.5605C68.4996 12.0425 67.9571 11.64 67.2991 11.353C66.6411 11.059 65.9306 10.912 65.1676 10.912C64.1316 10.912 63.2111 11.164 62.4061 11.668C61.6081 12.165 60.9816 12.844 60.5266 13.705C60.0716 14.559 59.8441 15.525 59.8441 16.603C59.8441 17.709 60.0821 18.696 60.5581 19.564C61.0341 20.425 61.6711 21.104 62.4691 21.601C63.2741 22.091 64.1736 22.336 65.1676 22.336ZM66.1231 19.5955C65.2901 19.5955 64.6006 19.3155 64.0546 18.7555C63.5086 18.1955 63.2356 17.485 63.2356 16.624C63.2356 15.763 63.5086 15.0525 64.0546 14.4925C64.6076 13.9325 65.2971 13.6525 66.1231 13.6525C66.9561 13.6525 67.6421 13.9325 68.1811 14.4925C68.7271 15.0455 69.0001 15.756 69.0001 16.624C69.0001 17.492 68.7306 18.206 68.1916 18.766C67.6526 19.319 66.9631 19.5955 66.1231 19.5955ZM74.3039 22H79.0604C80.2924 22 81.4369 21.783 82.4939 21.349C83.5579 20.908 84.4854 20.2955 85.2764 19.5115C86.0744 18.7275 86.6939 17.8105 87.1349 16.7605C87.5759 15.7105 87.7964 14.5765 87.7964 13.3585C87.7964 12.1405 87.5724 11.0065 87.1244 9.9565C86.6834 8.8995 86.0639 7.9755 85.2659 7.1845C84.4749 6.3935 83.5509 5.7775 82.4939 5.3365C81.4369 4.8955 80.2924 4.675 79.0604 4.675H74.3039V22ZM77.7059 18.955V7.72H78.6824C79.7324 7.72 80.6669 7.965 81.4859 8.455C82.3119 8.945 82.9594 9.6135 83.4284 10.4605C83.9044 11.3075 84.1424 12.27 84.1424 13.348C84.1424 14.419 83.9044 15.378 83.4284 16.225C82.9594 17.072 82.3119 17.7405 81.4859 18.2305C80.6669 18.7135 79.7324 18.955 78.6824 18.955H77.7059ZM93.8269 22.336C94.9609 22.336 95.9899 22.091 96.9139 21.601C97.8379 21.111 98.5519 20.432 99.0559 19.564L96.7354 18.3985C96.3364 18.8745 95.9199 19.221 95.4859 19.438C95.0589 19.655 94.5654 19.7635 94.0054 19.7635C93.1094 19.7635 92.3884 19.515 91.8424 19.018C91.2964 18.521 91.0234 17.863 91.0234 17.044H99.2659C99.2869 16.862 99.2974 16.7395 99.2974 16.6765C99.3044 16.6065 99.3079 16.526 99.3079 16.435C99.3079 15.336 99.0699 14.3735 98.5939 13.5475C98.1249 12.7215 97.4669 12.0775 96.6199 11.6155C95.7799 11.1465 94.7999 10.912 93.6799 10.912C92.5599 10.912 91.5484 11.1675 90.6454 11.6785C89.7494 12.1825 89.0354 12.865 88.5034 13.726C87.9714 14.587 87.7054 15.553 87.7054 16.624C87.7054 17.709 87.9714 18.682 88.5034 19.543C89.0424 20.404 89.7739 21.0865 90.6979 21.5905C91.6219 22.0875 92.6649 22.336 93.8269 22.336ZM91.1389 15.259C91.2089 14.636 91.4679 14.146 91.9159 13.789C92.3639 13.432 92.9379 13.2535 93.6379 13.2535C94.3029 13.2535 94.8559 13.432 95.2969 13.789C95.7449 14.146 96.0249 14.636 96.1369 15.259H91.1389ZM98.1215 22H101.986L104.674 18.598L107.362 22H111.226L106.637 16.3825L110.575 11.248H106.837L104.674 14.1355L102.511 11.248H98.7725L102.71 16.3825L98.1215 22Z" fill="#242424"/>
</svg>
